<svg xmlns="http://www.w3.org/2000/svg" viewBox="0 0 512 512" width="512" height="512">
  <!-- Proposal 1 - "Heartbeat": white heart with an ECG/QRS pulse line.
       The universal health-data motif (heart rate, vitals). -->
  <defs>
    <linearGradient id="bg" x1="0%" y1="0%" x2="60%" y2="100%">
      <stop offset="0%"   stop-color="#FF6383"/>
      <stop offset="100%" stop-color="#E11D48"/>
    </linearGradient>
  </defs>
  <rect width="512" height="512" rx="114" fill="url(#bg)"/>
  <path fill="#ffffff" d="M256 372
    C 150 286, 96 224, 96 172
    C 96 130, 128 104, 168 104
    C 202 104, 226 126, 256 164
    C 286 126, 310 104, 344 104
    C 384 104, 416 130, 416 172
    C 416 224, 362 286, 256 372 Z"/>
  <polyline points="150,246 196,246 220,246 240,200 262,300 284,214 306,246 362,246"
    fill="none" stroke="#E11D48" stroke-width="16"
    stroke-linejoin="round" stroke-linecap="round"/>
</svg>
